<svg xmlns="http://www.w3.org/2000/svg" viewBox="0 0 240 336" width="240" height="336">
  <defs>
    <linearGradient id="bg" x1="0" y1="0" x2="0" y2="1">
      <stop offset="0" stop-color="#1e3a8a"/>
      <stop offset="0.5" stop-color="#2563eb"/>
      <stop offset="1" stop-color="#0f172a"/>
    </linearGradient>
    <radialGradient id="shine" cx="50%" cy="50%" r="50%">
      <stop offset="0" stop-color="#fbbf24" stop-opacity="0.35"/>
      <stop offset="0.6" stop-color="#fbbf24" stop-opacity="0"/>
    </radialGradient>
    <pattern id="dots" width="10" height="10" patternUnits="userSpaceOnUse">
      <circle cx="5" cy="5" r="1" fill="#1d4ed8" opacity="0.5"/>
    </pattern>
  </defs>
  <rect width="240" height="336" rx="14" fill="url(#bg)"/>
  <rect width="240" height="336" rx="14" fill="url(#dots)"/>
  <rect x="10" y="10" width="220" height="316" rx="8" fill="none" stroke="#fde68a" stroke-width="1" opacity="0.4"/>
  <rect x="16" y="16" width="208" height="304" rx="6" fill="none" stroke="#1e40af" stroke-width="2"/>
  <circle cx="120" cy="168" r="82" fill="#fff"/>
  <path d="M120 86 a82 82 0 0 1 82 82 L38 168 a82 82 0 0 1 82 -82z" fill="#ef4444"/>
  <circle cx="120" cy="168" r="82" fill="none" stroke="#0f172a" stroke-width="4"/>
  <line x1="38" y1="168" x2="202" y2="168" stroke="#0f172a" stroke-width="4"/>
  <circle cx="120" cy="168" r="22" fill="#fff" stroke="#0f172a" stroke-width="4"/>
  <circle cx="120" cy="168" r="10" fill="#0f172a"/>
  <rect x="120" y="158" width="0" height="0"/>
  <rect width="240" height="336" rx="14" fill="url(#shine)"/>
  <text x="120" y="308" text-anchor="middle" font-family="Arial, sans-serif" font-weight="700" font-size="14" fill="#fde68a" opacity="0.9">POKÉMON</text>
</svg>
